<svg width="36" height="36" viewBox="0 0 36 36" fill="none" xmlns="http://www.w3.org/2000/svg">
<path fill-rule="evenodd" clip-rule="evenodd" d="M4.63076 3.83035C4.66436 3.88524 4.7227 4.0168 4.79693 4.30904C5.15903 5.73447 5.91574 8.75355 6.7497 12.0808C8.05497 17.2885 9.54948 23.2512 10.0164 25.0404C10.088 25.3149 10.292 25.4771 10.5086 25.5654C10.7205 25.6518 10.9669 25.6787 11.1898 25.6787C14.454 25.6787 19.2834 25.6255 23.2956 25.5723C25.302 25.5457 27.1044 25.5191 28.4052 25.4992C29.0556 25.4892 29.5807 25.4809 29.9431 25.4751L30.5048 25.4659C30.5049 25.4659 30.5053 25.4659 30.5052 25.4566C30.505 25.4387 30.5041 25.3864 30.5016 25.2336L30.5048 25.4659C30.6429 25.4636 30.7535 25.3499 30.7512 25.2118C30.7489 25.0738 30.6352 24.9637 30.4971 24.966L30.5013 25.216C30.4971 24.966 30.4972 24.966 30.4971 24.966L29.9351 24.9751C29.5728 24.9809 29.0479 24.9893 28.3976 24.9992C27.097 25.0192 25.2949 25.0458 23.289 25.0723C19.2767 25.1255 14.4503 25.1787 11.1898 25.1787C10.9986 25.1787 10.8249 25.1544 10.6974 25.1024C10.5745 25.0523 10.5197 24.9888 10.5002 24.9141C10.0337 23.1265 8.54134 17.1724 7.23681 11.9677C6.40228 8.63812 5.64461 5.61519 5.28154 4.18594C5.19591 3.84885 5.11372 3.64038 5.02052 3.51477C4.96969 3.44627 4.90751 3.39112 4.82955 3.35931C4.75765 3.32996 4.69282 3.33024 4.66957 3.33034C4.66837 3.33034 4.66727 3.33035 4.66629 3.33035H1.28905C1.15098 3.33035 1.03857 3.44227 1.03857 3.58035C1.03857 3.71842 1.1505 3.83035 1.28857 3.83035H4.63076Z" fill="black"/>
<path fill-rule="evenodd" clip-rule="evenodd" d="M32.3115 5.65237L32.2903 5.65606L5.30533 5.65606V5.15606L32.2491 5.15606C32.2584 5.15465 32.2705 5.15293 32.2849 5.15102C32.3202 5.14637 32.3702 5.1406 32.4316 5.13571C32.554 5.12595 32.7241 5.11944 32.915 5.13281C33.2872 5.15889 33.7853 5.26382 34.1412 5.61972C34.3326 5.81105 34.811 6.47411 34.5941 7.31261C33.8664 10.1263 32.1697 16.1375 31.3451 18.8537L31.3395 18.8722L31.3312 18.8895C30.9255 19.7325 30.1098 19.7859 29.8526 19.8028C29.8392 19.8037 29.8272 19.8044 29.8169 19.8052C29.3294 19.8427 25.8146 19.8501 21.5771 19.8448C17.3296 19.8394 12.3336 19.8212 8.86453 19.806L8.86672 19.306C12.3356 19.3212 17.331 19.3394 21.5777 19.3448C25.8345 19.3501 29.3167 19.3422 29.7786 19.3067C29.7888 19.3059 29.7996 19.3051 29.811 19.3043C30.0632 19.2862 30.5938 19.2479 30.8725 18.6893C31.6974 15.9701 33.3859 9.9873 34.11 7.18742C34.2636 6.59351 33.9185 6.1041 33.7877 5.97328C33.5594 5.74498 33.2096 5.65468 32.88 5.63159C32.72 5.62038 32.5757 5.62581 32.4714 5.63412C32.4195 5.63826 32.3781 5.64307 32.3503 5.64673C32.3364 5.64856 32.326 5.6501 32.3194 5.65111L32.3115 5.65237Z" fill="black"/>
<path fill-rule="evenodd" clip-rule="evenodd" d="M11.3383 32.8162C12.6141 32.8162 13.6484 31.7819 13.6484 30.506C13.6484 29.2302 12.6141 28.1959 11.3383 28.1959C10.0624 28.1959 9.02814 29.2302 9.02814 30.506C9.02814 31.7819 10.0624 32.8162 11.3383 32.8162ZM11.3383 33.3162C12.8902 33.3162 14.1484 32.058 14.1484 30.506C14.1484 28.9541 12.8902 27.6959 11.3383 27.6959C9.78627 27.6959 8.52814 28.9541 8.52814 30.506C8.52814 32.058 9.78627 33.3162 11.3383 33.3162Z" fill="black"/>
<path fill-rule="evenodd" clip-rule="evenodd" d="M28.2958 32.8162C29.5716 32.8162 30.6059 31.7819 30.6059 30.506C30.6059 29.2302 29.5716 28.1959 28.2958 28.1959C27.0199 28.1959 25.9857 29.2302 25.9857 30.506C25.9857 31.7819 27.0199 32.8162 28.2958 32.8162ZM28.2958 33.3162C29.8478 33.3162 31.1059 32.058 31.1059 30.506C31.1059 28.9541 29.8478 27.6959 28.2958 27.6959C26.7438 27.6959 25.4857 28.9541 25.4857 30.506C25.4857 32.058 26.7438 33.3162 28.2958 33.3162Z" fill="black"/>
</svg>
