<svg width="36" height="36" viewBox="0 0 36 36" fill="none" xmlns="http://www.w3.org/2000/svg">
<path fill-rule="evenodd" clip-rule="evenodd" d="M3.50342 3.99624C3.69528 3.79763 4.01182 3.79216 4.21043 3.98402L32.4843 31.2968C32.6829 31.4886 32.6884 31.8052 32.4965 32.0038C32.3047 32.2024 31.9882 32.2078 31.7895 32.016L3.51565 4.70324C3.31704 4.51138 3.31157 4.19485 3.50342 3.99624Z" fill="black"/>
<path fill-rule="evenodd" clip-rule="evenodd" d="M3.99621 32.4966C3.7976 32.3047 3.79213 31.9882 3.98398 31.7896L31.2967 3.51568C31.4886 3.31707 31.8051 3.3116 32.0037 3.50345C32.2023 3.69531 32.2078 4.01185 32.016 4.21045L4.70321 32.4844C4.51135 32.683 4.19482 32.6884 3.99621 32.4966Z" fill="black"/>
</svg>
