<svg width="36" height="36" viewBox="0 0 36 36" fill="none" xmlns="http://www.w3.org/2000/svg">
<path fill-rule="evenodd" clip-rule="evenodd" d="M2.14093 7.25C2.14093 7.11193 2.25286 7 2.39093 7L34.1091 7C34.2472 7 34.3591 7.11193 34.3591 7.25C34.3591 7.38807 34.2472 7.5 34.1091 7.5L2.39093 7.5C2.25286 7.5 2.14093 7.38807 2.14093 7.25Z" fill="black"/>
<path fill-rule="evenodd" clip-rule="evenodd" d="M2.14093 17.75C2.14093 17.6119 2.25286 17.5 2.39093 17.5L34.1091 17.5C34.2472 17.5 34.3591 17.6119 34.3591 17.75C34.3591 17.8881 34.2472 18 34.1091 18L2.39093 18C2.25286 18 2.14093 17.8881 2.14093 17.75Z" fill="black"/>
<path fill-rule="evenodd" clip-rule="evenodd" d="M2.14093 28.25C2.14093 28.1119 2.25286 28 2.39093 28L34.1091 28C34.2472 28 34.3591 28.1119 34.3591 28.25C34.3591 28.3881 34.2472 28.5 34.1091 28.5L2.39093 28.5C2.25286 28.5 2.14093 28.3881 2.14093 28.25Z" fill="black"/>
</svg>
